<?xml version="1.0" standalone="no"?>
<!DOCTYPE svg PUBLIC "-//W3C//DTD SVG 20010904//EN"
 "http://www.w3.org/TR/2001/REC-SVG-20010904/DTD/svg10.dtd">
<svg version="1.0" xmlns="http://www.w3.org/2000/svg"
 width="500.000000pt" height="500.000000pt" viewBox="0 0 500.000000 500.000000"
 preserveAspectRatio="xMidYMid meet">
<metadata>
Created by potrace 1.14, written by Peter Selinger 2001-2017
</metadata>
<g transform="translate(0.000000,500.000000) scale(0.100000,-0.100000)"
fill="#000000" stroke="none">
<path d="M2305 4993 c-459 -48 -793 -157 -1135 -368 -174 -108 -284 -197 -460
-374 -269 -271 -460 -582 -585 -957 -34 -100 -66 -225 -79 -304 -39 -234 -54
-539 -35 -695 46 -375 118 -624 265 -910 76 -149 206 -345 309 -465 110 -129
316 -318 465 -427 47 -34 294 -183 304 -183 2 0 51 -22 109 -50 188 -89 473
-173 667 -196 25 -3 56 -7 70 -10 45 -9 433 -12 513 -4 128 14 293 42 372 64
6 1 30 8 55 15 176 49 396 142 575 243 616 348 1071 986 1200 1683 59 315 53
676 -15 990 -38 177 -108 386 -177 532 -206 436 -566 834 -963 1065 -137 79
-213 119 -313 161 -192 82 -456 155 -632 173 -33 4 -64 9 -69 12 -10 6 -392
10 -441 5z"/>
</g>
</svg>
